<svg version="1.1" id="Layer_1" xmlns="http://www.w3.org/2000/svg" xmlns:xlink="http://www.w3.org/1999/xlink" x="0px" y="0px"
	 width="100%" viewBox="0 0 68 72" enable-background="new 0 0 68 72" xml:space="preserve">
<path fill="#000000" opacity="1.000000" stroke="none" 
	d="
M69.000000,22.000000 
	C69.000000,38.968700 69.000000,55.937397 69.000000,72.953049 
	C46.406445,72.953049 23.812775,72.953049 1.109551,72.953049 
	C1.109551,49.117668 1.109551,25.234669 1.109551,1.000000 
	C16.352438,1.000000 31.707560,1.000000 47.864929,1.249515 
	C48.468746,1.765331 48.328190,2.136862 48.063396,2.282496 
	C41.947922,5.645930 40.389782,11.308633 41.303596,17.508648 
	C42.175430,23.423836 46.111774,27.381172 52.034901,28.630121 
	C58.356346,29.963062 63.818634,28.524494 67.276550,22.411598 
	C67.474609,22.061466 68.408546,22.127598 69.000000,22.000000 
z"/>
<path fill="#D72626" opacity="1.000000" stroke="none" 
	d="
M69.000000,21.535347 
	C68.408546,22.127598 67.474609,22.061466 67.276550,22.411598 
	C63.818634,28.524494 58.356346,29.963062 52.034901,28.630121 
	C46.111774,27.381172 42.175430,23.423836 41.303596,17.508648 
	C40.389782,11.308633 41.947922,5.645930 48.063396,2.282496 
	C48.328190,2.136862 48.468746,1.765331 48.333588,1.249515 
	C52.356899,1.000000 56.713799,1.000000 61.201874,1.247116 
	C63.888695,3.662822 66.444351,5.831412 69.000000,8.000001 
	C69.000000,12.356899 69.000000,16.713799 69.000000,21.535347 
z"/>
<path fill="#000000" opacity="1.000000" stroke="none" 
	d="
M69.000000,7.502096 
	C66.444351,5.831412 63.888695,3.662822 61.666523,1.247116 
	C64.247635,1.000000 66.495277,1.000000 69.000000,1.000000 
	C69.000000,2.998142 69.000000,5.001166 69.000000,7.502096 
z"/>
</svg>